<?xml version="1.0" encoding="UTF-8" standalone="no"?>
<!DOCTYPE svg PUBLIC "-//W3C//DTD SVG 1.1//EN"
 "http://www.w3.org/Graphics/SVG/1.1/DTD/svg11.dtd">
<!-- Generated by graphviz version 2.40.1 (20161225.0304)
 -->
<!-- Title: G Pages: 1 -->
<svg width="353pt" height="678pt"
 viewBox="0.00 0.00 353.00 678.00" xmlns="http://www.w3.org/2000/svg" xmlns:xlink="http://www.w3.org/1999/xlink">
<g id="graph0" class="graph" transform="scale(1 1) rotate(0) translate(4 674)">
<title>G</title>
<polygon fill="#ffffff" stroke="transparent" points="-4,4 -4,-674 349,-674 349,4 -4,4"/>
<!-- A0 -->
<g id="node1" class="node">
<title>A0</title>
<polygon fill="none" stroke="#000000" points="188.503,-460 55.497,-460 55.497,-424 188.503,-424 188.503,-460"/>
<text text-anchor="middle" x="122" y="-439" font-family="Helvetica,sans-Serif" font-size="10.00" fill="#000000">DefaultRhymersFactory</text>
</g>
<!-- A4 -->
<g id="node5" class="node">
<title>A4</title>
<polygon fill="none" stroke="#000000" points="51,-282 51,-314 193,-314 193,-282 51,-282"/>
<text text-anchor="start" x="60.6015" y="-295" font-family="Helvetica,sans-Serif" font-size="10.00" fill="#000000">DefaultCountingOutRhymer</text>
<polygon fill="none" stroke="#000000" points="51,-238 51,-282 193,-282 193,-238 51,-238"/>
<text text-anchor="start" x="95.339" y="-263" font-family="Helvetica,sans-Serif" font-size="10.00" fill="#000000">&#45;NUMBERS</text>
<text text-anchor="start" x="109.633" y="-251" font-family="Helvetica,sans-Serif" font-size="10.00" fill="#000000">+total</text>
<polygon fill="none" stroke="#000000" points="51,-158 51,-238 193,-238 193,-158 51,-158"/>
<text text-anchor="start" x="95.4655" y="-219" font-family="Helvetica,sans-Serif" font-size="10.00" fill="#000000">+countIn(in)</text>
<text text-anchor="start" x="94.0845" y="-207" font-family="Helvetica,sans-Serif" font-size="10.00" fill="#000000">+callCheck()</text>
<text text-anchor="start" x="104.089" y="-195" font-family="Helvetica,sans-Serif" font-size="10.00" fill="#000000">+isFull()</text>
<text text-anchor="start" x="99.494" y="-183" font-family="Helvetica,sans-Serif" font-size="10.00" fill="#000000">pekaboo()</text>
<text text-anchor="start" x="95.465" y="-171" font-family="Helvetica,sans-Serif" font-size="10.00" fill="#000000">+countOut()</text>
</g>
<!-- A0&#45;&gt;A4 -->
<g id="edge6" class="edge">
<title>A0&#45;&gt;A4</title>
<path fill="none" stroke="#000000" stroke-dasharray="5,2" d="M122,-413.6114C122,-388.0148 122,-349.1525 122,-314.2998"/>
<polygon fill="#000000" stroke="#000000" points="122,-423.7189 117.5001,-413.7188 122,-418.7189 122.0001,-413.7189 122.0001,-413.7189 122.0001,-413.7189 122,-418.7189 126.5001,-413.7189 122,-423.7189 122,-423.7189"/>
</g>
<!-- A5 -->
<g id="node6" class="node">
<title>A5</title>
<polygon fill="none" stroke="#000000" points="28,-70 28,-102 105,-102 105,-70 28,-70"/>
<text text-anchor="start" x="37.6145" y="-83" font-family="Helvetica,sans-Serif" font-size="10.00" fill="#000000">FIFORhymer</text>
<polygon fill="none" stroke="#000000" points="28,-38 28,-70 105,-70 105,-38 28,-38"/>
<text text-anchor="start" x="52.4675" y="-51" font-family="Helvetica,sans-Serif" font-size="10.00" fill="#000000">+temp</text>
<polygon fill="none" stroke="#000000" points="28,-6 28,-38 105,-38 105,-6 28,-6"/>
<text text-anchor="start" x="39.965" y="-19" font-family="Helvetica,sans-Serif" font-size="10.00" fill="#000000">+countOut()</text>
</g>
<!-- A0&#45;&gt;A5 -->
<g id="edge7" class="edge">
<title>A0&#45;&gt;A5</title>
<path fill="none" stroke="#000000" stroke-dasharray="5,2" d="M99.2651,-415.64C79.7672,-391.163 53.1154,-352.7572 42,-314 21.4426,-242.3205 37.2144,-155.4046 51.115,-102.4304"/>
<polygon fill="#000000" stroke="#000000" points="105.8262,-423.6947 96.0216,-418.7834 102.6684,-419.818 99.5106,-415.9414 99.5106,-415.9414 99.5106,-415.9414 102.6684,-419.818 102.9995,-413.0993 105.8262,-423.6947 105.8262,-423.6947"/>
</g>
<!-- A6 -->
<g id="node7" class="node">
<title>A6</title>
<polygon fill="none" stroke="#000000" points="145,-76 145,-108 254,-108 254,-76 145,-76"/>
<text text-anchor="start" x="168.945" y="-89" font-family="Helvetica,sans-Serif" font-size="10.00" fill="#000000">HanoiRhymer</text>
<polygon fill="none" stroke="#000000" points="145,-44 145,-76 254,-76 254,-44 145,-44"/>
<text text-anchor="start" x="170.326" y="-57" font-family="Helvetica,sans-Serif" font-size="10.00" fill="#000000">totalRejected</text>
<polygon fill="none" stroke="#000000" points="145,0 145,-44 254,-44 254,0 145,0"/>
<text text-anchor="start" x="154.909" y="-25" font-family="Helvetica,sans-Serif" font-size="10.00" fill="#000000">+reportedRejected()</text>
<text text-anchor="start" x="172.9655" y="-13" font-family="Helvetica,sans-Serif" font-size="10.00" fill="#000000">+countIn(in)</text>
</g>
<!-- A0&#45;&gt;A6 -->
<g id="edge8" class="edge">
<title>A0&#45;&gt;A6</title>
<path fill="none" stroke="#000000" stroke-dasharray="5,2" d="M144.7349,-415.64C164.2328,-391.163 190.8846,-352.7572 202,-314 221.7562,-245.1143 215.8564,-161.6812 208.523,-108.2326"/>
<polygon fill="#000000" stroke="#000000" points="138.1738,-423.6947 141.0005,-413.0993 141.3316,-419.818 144.4894,-415.9414 144.4894,-415.9414 144.4894,-415.9414 141.3316,-419.818 147.9784,-418.7834 138.1738,-423.6947 138.1738,-423.6947"/>
</g>
<!-- A1 -->
<g id="node2" class="node">
<title>A1</title>
<polygon fill="none" stroke="#000000" points="0,-638 0,-670 118,-670 118,-638 0,-638"/>
<text text-anchor="start" x="10.657" y="-651" font-family="Helvetica,sans-Serif" font-size="10.00" fill="#000000">&lt;&lt;RhymersFactory&gt;&gt;</text>
<polygon fill="none" stroke="#000000" points="0,-570 0,-638 118,-638 118,-570 0,-570"/>
<text text-anchor="start" x="9.829" y="-619" font-family="Helvetica,sans-Serif" font-size="10.00" fill="#000000">GetStandardRhymer()</text>
<text text-anchor="start" x="17.892" y="-607" font-family="Helvetica,sans-Serif" font-size="10.00" fill="#000000">GetFalseRhymer()</text>
<text text-anchor="start" x="18.727" y="-595" font-family="Helvetica,sans-Serif" font-size="10.00" fill="#000000">GetFIFORhymer()</text>
<text text-anchor="start" x="17.0575" y="-583" font-family="Helvetica,sans-Serif" font-size="10.00" fill="#000000">GetHanoiRhymer()</text>
</g>
<!-- A1&#45;&gt;A0 -->
<g id="edge1" class="edge">
<title>A1&#45;&gt;A0</title>
<path fill="none" stroke="#000000" stroke-dasharray="5,2" d="M80.1354,-560.284C92.5085,-525.3252 107.2827,-483.5823 115.5585,-460.1997"/>
<polygon fill="none" stroke="#000000" points="76.7538,-559.3486 76.7167,-569.9434 83.3527,-561.6842 76.7538,-559.3486"/>
</g>
<!-- A2 -->
<g id="node3" class="node">
<title>A2</title>
<polygon fill="none" stroke="#000000" points="269,-488 269,-520 345,-520 345,-488 269,-488"/>
<text text-anchor="start" x="278.9355" y="-501" font-family="Helvetica,sans-Serif" font-size="10.00" fill="#000000">IntLinkedList</text>
<polygon fill="none" stroke="#000000" points="269,-444 269,-488 345,-488 345,-444 269,-444"/>
<text text-anchor="start" x="299.2215" y="-469" font-family="Helvetica,sans-Serif" font-size="10.00" fill="#000000">last</text>
<text text-anchor="start" x="305.8905" y="-457" font-family="Helvetica,sans-Serif" font-size="10.00" fill="#000000">i</text>
<polygon fill="none" stroke="#000000" points="269,-364 269,-444 345,-444 345,-364 269,-364"/>
<text text-anchor="start" x="288.8035" y="-425" font-family="Helvetica,sans-Serif" font-size="10.00" fill="#000000">+push(i)</text>
<text text-anchor="start" x="282.974" y="-413" font-family="Helvetica,sans-Serif" font-size="10.00" fill="#000000">+isEmpty()</text>
<text text-anchor="start" x="289.089" y="-401" font-family="Helvetica,sans-Serif" font-size="10.00" fill="#000000">+isFull()</text>
<text text-anchor="start" x="293.803" y="-389" font-family="Helvetica,sans-Serif" font-size="10.00" fill="#000000">+top()</text>
<text text-anchor="start" x="292.413" y="-377" font-family="Helvetica,sans-Serif" font-size="10.00" fill="#000000">+pop()</text>
</g>
<!-- A3 -->
<g id="node4" class="node">
<title>A3</title>
<polygon fill="none" stroke="#000000" points="283,-632 283,-664 332,-664 332,-632 283,-632"/>
<text text-anchor="start" x="295.552" y="-645" font-family="Helvetica,sans-Serif" font-size="10.00" fill="#000000">Node</text>
<polygon fill="none" stroke="#000000" points="283,-576 283,-632 332,-632 332,-576 283,-576"/>
<text text-anchor="start" x="292.6325" y="-613" font-family="Helvetica,sans-Serif" font-size="10.00" fill="#000000">+value</text>
<text text-anchor="start" x="294.857" y="-601" font-family="Helvetica,sans-Serif" font-size="10.00" fill="#000000">+prev</text>
<text text-anchor="start" x="295.132" y="-589" font-family="Helvetica,sans-Serif" font-size="10.00" fill="#000000">+next</text>
</g>
<!-- A3&#45;&gt;A2 -->
<g id="edge2" class="edge">
<title>A3&#45;&gt;A2</title>
<path fill="none" stroke="#000000" d="M307,-576C307,-562.6775 307,-547.5294 307,-532.3296"/>
<polygon fill="#000000" stroke="#000000" points="307.0001,-532.1624 303,-526.1625 307,-520.1624 311,-526.1624 307.0001,-532.1624"/>
</g>
<!-- A4&#45;&gt;A5 -->
<g id="edge3" class="edge">
<title>A4&#45;&gt;A5</title>
<path fill="none" stroke="#000000" d="M94.9149,-147.9733C90.0628,-132.2042 85.1742,-116.316 80.8324,-102.2054"/>
<polygon fill="none" stroke="#000000" points="91.6398,-149.2309 97.926,-157.7594 98.3303,-147.1723 91.6398,-149.2309"/>
</g>
<!-- A4&#45;&gt;A6 -->
<g id="edge4" class="edge">
<title>A4&#45;&gt;A6</title>
<path fill="none" stroke="#000000" d="M159.1111,-148.2829C164.9214,-134.5495 170.7739,-120.7161 176.1385,-108.0363"/>
<polygon fill="none" stroke="#000000" points="155.7749,-147.1859 155.1018,-157.7594 162.2216,-149.9135 155.7749,-147.1859"/>
</g>
<!-- A7 -->
<g id="node8" class="node">
<title>A7</title>
<polygon fill="none" stroke="#000000" points="136,-636 136,-668 252,-668 252,-636 136,-636"/>
<text text-anchor="start" x="160.6695" y="-649" font-family="Helvetica,sans-Serif" font-size="10.00" fill="#000000">RhymersDemo</text>
<polygon fill="none" stroke="#000000" points="136,-604 136,-636 252,-636 252,-604 136,-604"/>
<text text-anchor="start" x="178.9975" y="-617" font-family="Helvetica,sans-Serif" font-size="10.00" fill="#000000">factory</text>
<polygon fill="none" stroke="#000000" points="136,-572 136,-604 252,-604 252,-572 136,-572"/>
<text text-anchor="start" x="145.948" y="-585" font-family="Helvetica,sans-Serif" font-size="10.00" fill="#000000">&#45;testRhymers(factory)</text>
</g>
<!-- A7&#45;&gt;A0 -->
<g id="edge5" class="edge">
<title>A7&#45;&gt;A0</title>
<path fill="none" stroke="#000000" d="M170.757,-562.538C156.4305,-527.1198 139.0082,-484.0481 129.3486,-460.1673"/>
<polygon fill="#000000" stroke="#000000" points="174.5158,-571.8306 166.5943,-564.2477 172.6408,-567.1955 170.7659,-562.5603 170.7659,-562.5603 170.7659,-562.5603 172.6408,-567.1955 174.9376,-560.8729 174.5158,-571.8306 174.5158,-571.8306"/>
</g>
</g>
</svg>
